# xmcd
#
# Track frame offsets: 
#        300
#        17949
#        48417
#        78328
#        98623
#        120679
#        142805
#        163016
#        181779
#        210054
#        227132
#        246995
#        279503
#        298677
#
# Disc length: 4299 seconds
#
# Revision: 0
# Processed by: cddbd v1.5.2PL0 Copyright (c) Steve Scherf et al.
# Submitted via: ExactAudioCopy v1.0b1
#
DISCID=b910c70e
DTITLE=Bonnie Raitt With Little Feat - Sofa Blues
DYEAR=1972
DGENRE=Blues
TTITLE0=louisiana blues
TTITLE1=Can't Find My Way Back Home
TTITLE2=Ain't Goin' Down That Lonesome Road
TTITLE3=You Can Make Me Do What You Want To
TTITLE4=A Apolitical Blues
TTITLE5=Nothing Seems To Matter Without You
TTITLE6=Love Me Like A Man
TTITLE7=Live And Die
TTITLE8=Mean Old World
TTITLE9=Thats Alright Mama
TTITLE10=Got No Shadow
TTITLE11=On Your Way Down
TTITLE12=Walkin' All Night
TTITLE13=two trains
EXTD=
EXTT0=
EXTT1=
EXTT2=
EXTT3=
EXTT4=
EXTT5=
EXTT6=
EXTT7=
EXTT8=
EXTT9=
EXTT10=
EXTT11=
EXTT12=
EXTT13=
PLAYORDER=
